<svg width="59" height="59" viewBox="0 0 59 59" fill="none" xmlns="http://www.w3.org/2000/svg">
<circle cx="29.5" cy="29.5" r="29.5" fill="black" fill-opacity="0.75"/>
<path d="M34.8798 32.8684C36.2717 30.9688 36.8951 28.6136 36.6253 26.2741C36.3555 23.9345 35.2124 21.7832 33.4247 20.2503C31.6371 18.7175 29.3366 17.9163 26.9837 18.0069C24.6307 18.0976 22.3987 19.0735 20.7343 20.7394C19.0698 22.4052 18.0957 24.6382 18.0067 26.9916C17.9177 29.345 18.7205 31.6452 20.2544 33.432C21.7883 35.2188 23.9402 36.3605 26.2796 36.6287C28.619 36.8968 30.9734 36.2716 32.8717 34.8782H32.8702C32.9124 34.9357 32.9594 34.9908 33.0111 35.0435L38.5453 40.5785C38.8148 40.8482 39.1804 40.9999 39.5618 41C39.9431 41.0001 40.3088 40.8488 40.5785 40.5792C40.8483 40.3096 40.9999 39.9439 41 39.5626C41.0001 39.1812 40.8488 38.8154 40.5793 38.5456L35.0451 33.0107C34.9937 32.9586 34.9385 32.912 34.8798 32.8684ZM35.2506 27.3421C35.2506 28.3804 35.0461 29.4086 34.6488 30.368C34.2515 31.3273 33.6692 32.199 32.935 32.9332C32.2009 33.6674 31.3294 34.2499 30.3702 34.6472C29.411 35.0446 28.3829 35.2491 27.3447 35.2491C26.3065 35.2491 25.2784 35.0446 24.3192 34.6472C23.36 34.2499 22.4885 33.6674 21.7543 32.9332C21.0202 32.199 20.4379 31.3273 20.0405 30.368C19.6432 29.4086 19.4387 28.3804 19.4387 27.3421C19.4387 25.245 20.2717 23.2338 21.7543 21.7509C23.237 20.268 25.2479 19.435 27.3447 19.435C29.4415 19.435 31.4524 20.268 32.935 21.7509C34.4177 23.2338 35.2506 25.245 35.2506 27.3421Z" fill="white"/>
</svg>
