<svg width="23" height="29" viewBox="0 0 23 29" fill="none" xmlns="http://www.w3.org/2000/svg">
<path d="M0 2.71875C0 1.21723 1.21723 0 2.71875 0V0C4.22027 0 5.4375 1.21723 5.4375 2.71875V26.2812C5.4375 27.7828 4.22027 29 2.71875 29V29C1.21723 29 0 27.7828 0 26.2812V2.71875Z" fill="white"/>
<path d="M17.1279 2.71875C17.1279 1.21723 18.3452 0 19.8467 0V0C21.3482 0 22.5654 1.21723 22.5654 2.71875V26.2812C22.5654 27.7828 21.3482 29 19.8467 29V29C18.3452 29 17.1279 27.7828 17.1279 26.2812V2.71875Z" fill="white"/>
</svg>
