<svg width="34" height="32" viewBox="0 0 34 32" fill="none" xmlns="http://www.w3.org/2000/svg">
<path d="M18.6864 2.37562C19.072 2.52874 19.3419 2.85537 19.4112 3.23494L19.4287 3.42856V28.5714C19.4287 29.0318 19.1351 29.4473 18.684 29.6254C18.2974 29.778 17.8597 29.7305 17.5227 29.5109L17.3634 29.3867L10.2564 22.8153H6.07157C4.17804 22.8153 2.6219 21.4555 2.4454 19.717L2.42871 19.3868V12.5548C2.42871 10.7727 3.87344 9.30806 5.72074 9.14193L6.07157 9.12623H10.2594L17.3671 2.60993C17.7168 2.28929 18.2366 2.197 18.6864 2.37562ZM26.0774 4.70669L26.2877 4.84109L26.5252 5.03439C26.678 5.1636 26.8888 5.35078 27.1385 5.59473C27.637 6.08202 28.2942 6.80006 28.9499 7.74004C30.2623 9.62143 31.5796 12.4099 31.5796 16.0092C31.5796 19.6088 30.2621 22.3931 28.949 24.2704C28.293 25.2082 27.6356 25.9241 27.1368 26.4098L26.7936 26.7319L26.3402 27.1182L26.26 27.1801C25.7343 27.5721 24.9688 27.49 24.5523 26.9954C24.1828 26.5566 24.2109 25.9412 24.5889 25.5344L24.9027 25.2658C25.0159 25.1705 25.1847 25.0217 25.3906 24.8212C25.8032 24.4194 26.3611 23.8135 26.9206 23.0137C28.038 21.4158 29.151 19.0618 29.151 16.0092C29.151 12.9565 28.038 10.5975 26.9196 8.99448C26.4534 8.32596 25.988 7.79201 25.6068 7.39901L25.1958 6.9961L24.7483 6.60886C24.2243 6.21558 24.1367 5.49601 24.5542 5.00246C24.9255 4.56353 25.5701 4.45032 26.0774 4.70669ZM23.6508 9.27789L23.8926 9.43729L24.2172 9.7247L24.3485 9.85414C24.6242 10.134 24.9797 10.5439 25.3318 11.089C26.0398 12.185 26.7249 13.8157 26.7249 15.9967C26.7249 18.1775 26.0398 19.81 25.3323 20.9077C24.9807 21.4535 24.6251 21.8644 24.3497 22.1449L24.103 22.3832L23.9323 22.5319L23.8358 22.6089L23.6816 22.6748C23.3601 22.796 22.6082 22.9936 22.1292 22.4295C21.7589 21.9935 21.7828 21.3807 22.1557 20.9721L22.4823 20.6767L22.5659 20.5938C22.7468 20.4097 22.9996 20.1199 23.2558 19.7222C23.7649 18.9326 24.2963 17.7053 24.2963 15.9967C24.2963 14.2881 23.7649 13.0634 23.2566 12.2763C23.0644 11.979 22.8743 11.7423 22.7151 11.5653L22.4838 11.3256L22.3174 11.177C21.796 10.7857 21.7102 10.0679 22.1275 9.57425C22.4986 9.13519 23.1433 9.02171 23.6508 9.27789Z" fill="white"/>
</svg>
