<svg width="34" height="32" viewBox="0 0 34 32" fill="none" xmlns="http://www.w3.org/2000/svg">
<g clip-path="url(#clip0_268_125)">
<path d="M19.4273 19.9008L31.927 31.6654C32.4013 32.1115 33.1702 32.1115 33.6445 31.6654C34.1185 31.219 34.1185 30.4953 33.6445 30.0489L2.07291 0.334741C1.5987 -0.11158 0.829865 -0.11158 0.355662 0.334741C-0.118554 0.781049 -0.118554 1.50466 0.355662 1.95097L7.97934 9.12622H6.07024C4.05834 9.12622 2.42738 10.6612 2.42738 12.5548V19.3868C2.42738 21.2802 4.05834 22.8153 6.07024 22.8153H10.255L17.3621 29.3867C17.711 29.7093 18.2316 29.8034 18.6827 29.6254C19.1338 29.4473 19.4273 29.0318 19.4273 28.5714V19.9008Z" fill="white"/>
<path d="M26.0075 19.629L24.0769 17.8121C24.2105 17.2815 24.2951 16.6773 24.2951 15.9967C24.2951 14.2881 23.7636 13.0633 23.2553 12.2763C22.9991 11.8799 22.7466 11.5913 22.5661 11.4081C22.476 11.3167 22.4046 11.252 22.3604 11.214C22.3383 11.195 22.3233 11.1827 22.3162 11.177L22.3186 11.1788C21.7947 10.7856 21.7089 10.0679 22.1263 9.57426C22.5438 9.08032 23.3076 8.99842 23.8324 9.39138L23.8346 9.39291L23.8367 9.39463L23.8421 9.39858L23.855 9.40862L23.8914 9.43728C23.92 9.46021 23.9572 9.49083 24.0016 9.52923C24.0905 9.60597 24.209 9.71406 24.3471 9.85413C24.6227 10.134 24.9785 10.5439 25.3307 11.089C26.0386 12.1851 26.7237 13.8157 26.7237 15.9967C26.7237 17.4495 26.4196 18.6589 26.0075 19.629Z" fill="white"/>
<path d="M29.6909 23.0962L27.8828 21.3943C28.5985 19.9584 29.1493 18.1567 29.1493 16.0093C29.1493 12.9565 28.0363 10.5976 26.9179 8.99451C26.3584 8.19227 25.8003 7.58384 25.3872 7.18018C25.181 6.9787 25.0122 6.8293 24.8988 6.73333C24.8422 6.68537 24.7997 6.65086 24.7735 6.62997L24.7465 6.60889C24.2227 6.21561 24.1348 5.49602 24.5525 5.00249C24.9702 4.50869 25.734 4.42711 26.2588 4.82027L26.2629 4.82343L26.2688 4.82795L26.286 4.8411L26.3404 4.88379C26.3853 4.9195 26.4473 4.96976 26.5235 5.0344C26.676 5.16363 26.8871 5.35079 27.1367 5.59477C27.6351 6.08203 28.2923 6.80007 28.948 7.74005C30.2604 9.62144 31.5779 12.4099 31.5779 16.0093C31.5779 18.9213 30.7155 21.2999 29.6909 23.0962Z" fill="white"/>
<path d="M19.4276 13.4361L12.5835 6.99454L17.3661 2.60997C17.7158 2.28933 18.2355 2.197 18.6854 2.37564C19.1352 2.55429 19.4276 2.9691 19.4276 3.42862V13.4361Z" fill="white"/>
</g>
<defs>
<clipPath id="clip0_268_125">
<rect width="34" height="32" fill="white"/>
</clipPath>
</defs>
</svg>
